<svg xmlns="http://www.w3.org/2000/svg" width="100" height="100"><path d="M0 0h538.584v538.583H0V0z" fill="none"/><g fill="none" fill-rule="evenodd"><path fill="#FFF" d="M50 0c27.6146 0 50 22.3854 50 50s-22.3854 50-50 50S0 77.6146 0 50 22.3854 0 50 0"></path><path fill="#28AED4" d="M40.1113 7.8898a2.2113 2.2113 0 0 0-1.2222 1.9778v6.327a66.6042 66.6042 0 0 1 22.2222 0v-6.327a2.212 2.212 0 0 0-1.2229-1.9778 22.0981 22.0981 0 0 0-9.8882-2.334c-3.3882 0-6.7764.7777-9.8889 2.334M89.9685 69.4614C82.752 84.2537 67.5658 94.4447 49.9998 94.4447c-18.741 0-34.7736-11.6007-41.3076-28.0125 3.3319-2.952 7.2458-5.3208 13.5298-5.3208 8.3333 0 12.5 4.1667 16.6667 8.3333 4.1666 4.1667 8.3333 8.3334 16.6666 8.3334 6.9445 0 11.8056-2.0834 16.6667-4.1667 4.8611-2.0833 9.7222-4.1667 16.6667-4.1667.3666 0 .727.0056 1.0798.0167"></path><path fill="#046" d="M49.9997 38.8889c-5.5556 8.3333 0 33.3333 0 33.3333s5.5555-25 0-33.3333m-39.6556 31.2c1.8833-.402 3.9542-.6445 6.3222-.6445 6.9445 0 11.8056 2.0834 16.6667 4.1667.6111.2618 1.2215.5236 1.8368.7813-2.6556-8.8875-6.7333-20.1827-12.2333-28.8493-.3952-.6223-.2542-1.4466.3507-1.8688 11.0784-7.7354 26.7125-10.341 26.7125-10.341s15.6347 2.6056 26.7131 10.341c.605.4222.7459 1.2465.3507 1.8688-4.6013 7.25-8.2069 16.3402-10.8173 24.3215l.4201-.4202c4.1667-4.1666 8.3334-8.3333 16.6667-8.3333 3.7507 0 6.6562.8438 9.0986 2.152-5.641 18.0675-22.5049 31.182-42.432 31.182-17.3166 0-32.32-9.9041-39.6555-24.3562"></path><path fill="#046" d="M28.5699 24.703a1.2214 1.2214 0 0 0-.7924 1.143v8.8403c4.0243-1.9368 8.0347-3.368 11.3965-4.3958 2.8084-.859 5.2514-1.4618 7.0021-1.8521 1.3153-.2924 2.2472-.4674 2.6667-.5424l1.157-.1951.9909.166.166.0291c.1402.025.3368.0612.5854.109.4979.0959 1.2055.239 2.082.4334 1.7506.3903 4.193.993 7.002 1.852 3.3618 1.0279 7.3722 2.4591 11.3958 4.396V25.846c0-.5083-.316-.9645-.7916-1.143a61.0347 61.0347 0 0 0-42.8604 0"></path></g></svg>